inDegrees=yes
name=ik_Shooting_orientations_bogen
DataType=double
version=3
OpenSimVersion=4.3-2021-08-27-4bc7ad9
endheader
time	pelvis_tilt	pelvis_list	pelvis_rotation	pelvis_tx	pelvis_ty	pelvis_tz	hip_flexion_r	hip_adduction_r	hip_rotation_r	knee_angle_r	knee_angle_r_beta	ankle_angle_r	subtalar_angle_r	mtp_angle_r	hip_flexion_l	hip_adduction_l	hip_rotation_l	knee_angle_l	knee_angle_l_beta	ankle_angle_l	subtalar_angle_l	mtp_angle_l	lumbar_extension	lumbar_bending	lumbar_rotation	arm_flex_r	arm_add_r	arm_rot_r	elbow_flex_r	pro_sup_r	wrist_flex_r	wrist_dev_r	arm_flex_l	arm_add_l	arm_rot_l	elbow_flex_l	pro_sup_l	wrist_flex_l	wrist_dev_l
7.15	-0.7052532205543728	-1.658626457242923	147.9811840745484	0	0.9399999999999999	0	44.81584646777223	-9.998408883526402	0	59.83556407518134	1.04432760289995	-4.996779884401562	0	0	44.81584646777223	-9.998408883526402	0	59.83556407518134	1.04432760289995	-4.996779884401562	0	0	2.209878485816543	-0.2179252013194654	-3.361622286090933	0	-13.78464031774599	0	75.12097757917535	45.02696712694178	0	0	20.75079687157793	-35.11198856187015	7.766610736316386	5.945088242599415	45.02696712694178	0	0
7.16	-0.6812772622654453	-1.672569107129645	148.011356719128	0	0.9399999999999999	0	44.81626705536276	-9.998418103585466	0	59.8359292000977	1.044333975531922	-4.996802589320822	0	0	44.81626705536276	-9.998418103585466	0	59.8359292000977	1.044333975531922	-4.996802589320822	0	0	2.236006466043512	-0.2225556456169271	-3.393915343728781	0	-13.78629809516625	0	75.12070168216268	45.02683567911292	0	0	21.57003298116322	-34.87341363833808	5.714451032421143	5.167058718913242	45.02683567911292	0	0
7.17	-0.673693431054718	-1.676573643480316	148.0484057794261	0	0.9399999999999999	0	44.81666632047385	-9.998426828005297	0	59.83627584740221	1.044340025668729	-4.996824049105242	0	0	44.81666632047385	-9.998426828005297	0	59.83627584740221	1.044340025668729	-4.996824049105242	0	0	2.28047851990784	-0.2074942493042892	-3.45547498219769	0	-13.7878731921949	0	75.12043977226338	45.02671119289796	0	0	23.25899499385323	-34.75002857815484	3.389890276167716	3.609181174271713	45.02671119289796	0	0
7.18	-0.6720003308998621	-1.667279475185828	148.0573929571685	0	0.9399999999999999	0	44.81732713595349	-9.998441472737293	0	59.83684650057982	1.044349985445565	-4.996860218352976	0	0	44.81732713595349	-9.998441472737293	0	59.83684650057982	1.044349985445565	-4.996860218352976	0	0	2.25183790732393	-0.1865874090030243	-3.456678005828322	0	-13.79046811653114	0	75.12000629061042	45.02650291630641	0	0	27.194779454029	-34.91058960304325	-0.3569726817185426	0.4880925995752439	45.02650291630641	0	0
7.19	-0.6627483160703574	-1.634075835462059	148.0240343561595	0	0.9399999999999999	0	44.81812486392453	-9.998458367053381	0	59.837547233423	1.044362215540855	-4.996901391438567	0	0	44.81812486392453	-9.998458367053381	0	59.837547233423	1.044362215540855	-4.996901391438567	0	0	2.22342519339267	-0.1814621572778717	-3.394753144050556	0	-13.79364896606498	0	75.11948299696084	45.02626009541716	0	0	30.06354925478601	-35.58208819063984	-5.301690073495299	0.0500784268270168	45.02626009541716	0	0
7.2	-0.6582448188645541	-1.643183686926839	148.0233408774981	0	0.9399999999999999	0	44.81845753624177	-9.998466012229823	0	59.83782721740515	1.044367102183197	-4.996920422783115	0	0	44.81845753624177	-9.998466012229823	0	59.83782721740515	1.044367102183197	-4.996920422783115	0	0	2.251920812451856	-0.181644520881657	-3.404647478991812	0	-13.79493452812521	0	75.11926477068192	45.02615213484914	0	0	30.45504634675702	-35.75649643602596	-7.039660737050135	0.04443842995729824	45.02615213484914	0	0
7.21	-0.628001640965797	-1.675183526940668	148.0520516846931	0	0.9399999999999999	0	44.81904046996834	-9.998478396208114	0	59.83833859598703	1.044376027423175	-4.996950638515229	0	0	44.81904046996834	-9.998478396208114	0	59.83833859598703	1.044376027423175	-4.996950638515229	0	0	2.316864573268483	-0.1876322112270704	-3.429183334558294	0	-13.79725781747188	0	75.11888237777951	45.02597429793866	0	0	29.00815166965924	-35.73507652651885	-5.454141078739976	0.09632008294361698	45.02597429793866	0	0
7.22	-0.6443236059360883	-1.685661409213926	148.0529744150417	0	0.9399999999999999	0	44.81914240419611	-9.998481401156834	0	59.83840991748143	1.044377272218079	-4.996958498021175	0	0	44.81914240419611	-9.998481401156834	0	59.83840991748143	1.044377272218079	-4.996958498021175	0	0	2.313560504868874	-0.2091995312520074	-3.405333089955067	0	-13.79760396612803	0	75.118815511148	45.0259337445952	0	0	29.7972769325234	-36.59929721635929	-3.89972101251305	0.0858640373769801	45.0259337445952	0	0
7.23	-0.639868320262861	-1.696912057979688	148.0521310277707	0	0.9399999999999999	0	44.81959492860244	-9.998491465818431	0	59.83879433900648	1.044383981639407	-4.996983298462419	0	0	44.81959492860244	-9.998491465818431	0	59.83879433900648	1.044383981639407	-4.996983298462419	0	0	2.32715072037866	-0.2156914735095368	-3.400106868542197	0	-13.79937101638592	0	75.11851866427234	45.02579049439586	0	0	30.41096929283181	-37.1518038345087	-1.151423841350655	0.08709452468732588	45.02579049439586	0	0
7.24	-0.6350695543147611	-1.714144169228372	148.0769675045882	0	0.9399999999999999	0	44.81994083409958	-9.998498854296869	0	59.83909427718373	1.044389216548153	-4.997001315362371	0	0	44.81994083409958	-9.998498854296869	0	59.83909427718373	1.044389216548153	-4.997001315362371	0	0	2.361458635872608	-0.2136909853197461	-3.434061911547142	0	-13.80074311293327	0	75.11829175718123	45.02568441613412	0	0	29.70505117075068	-36.87289769737783	0.104821669005407	0.1637541609913025	45.02568441613412	0	0
7.25	-0.628058590114047	-1.724078393731507	148.0684526965738	0	0.9399999999999999	0	44.81999624818533	-9.998500473119201	0	59.83913308888855	1.04438989394019	-4.997005535779922	0	0	44.81999624818533	-9.998500473119201	0	59.83913308888855	1.04438989394019	-4.997005535779922	0	0	2.357681011196118	-0.2279006716009769	-3.406766559443812	0	-13.800931767415	0	75.11825540674641	45.02566251773244	0	0	29.46918092564325	-36.87835976344057	0.8868754020091288	0.2743990548654779	45.02566251773244	0	0
7.26	-0.6373345103022137	-1.706436740993945	148.0939573147338	0	0.9399999999999999	0	44.82005410249917	-9.99850215889958	0	59.83917366956523	1.044390602206611	-4.997009927750203	0	0	44.82005410249917	-9.99850215889958	0	59.83917366956523	1.044390602206611	-4.997009927750203	0	0	2.355927129627893	-0.2123785020447903	-3.430671818241045	0	-13.80112895843555	0	75.1182174555742	45.0256397010731	0	0	30.19465758929163	-36.76303613013727	1.174444339436641	0.1511332363754858	45.0256397010731	0	0
7.27	-0.6185025185052114	-1.754560446839057	148.0558858816314	0	0.9399999999999999	0	44.8200702268288	-9.998502626048294	0	59.83918502689172	1.044390800429352	-4.997011143298284	0	0	44.8200702268288	-9.998502626048294	0	59.83918502689172	1.044390800429352	-4.997011143298284	0	0	2.396281643263416	-0.2480644768926379	-3.349978358267126	0	-13.80118408489881	0	75.11820687836394	45.02563337147281	0	0	30.51296103644605	-36.87660632511265	0.6762074720816653	0.1280353241745252	45.02563337147281	0	0
7.28	-0.6557814810340054	-1.732660471968325	148.0768762317511	0	0.9399999999999999	0	44.82008825249262	-9.998503150065188	0	59.8391976852818	1.044391021359937	-4.997012507599159	0	0	44.82008825249262	-9.998503150065188	0	59.8391976852818	1.044391021359937	-4.997012507599159	0	0	2.323907545679888	-0.2654771765880486	-3.350052211660225	0	-13.80124558140688	0	75.11819505392012	45.02562627528924	0	0	30.22066625345372	-36.88352106518424	0.7374910075644957	0.2001837915725588	45.02562627528924	0	0
7.29	-0.6426534997864316	-1.742996697853304	148.1004036219165	0	0.9399999999999999	0	44.82055990992505	-9.998512849885392	0	59.83961247592728	1.044398260822407	-4.997035892342518	0	0	44.82055990992505	-9.998512849885392	0	59.83961247592728	1.044398260822407	-4.997035892342518	0	0	2.356549731483155	-0.2464203166449395	-3.409311095597773	0	-13.80314001042332	0	75.11788565599794	45.02548576103195	0	0	29.4903136383593	-37.26272769023087	1.812572885982702	0.6657501680561592	45.02548576103195	0	0
7.3	-0.6279901639001905	-1.760710339473279	148.0833098765376	0	0.9399999999999999	0	44.82057678239571	-9.998513336830857	0	59.83962435756613	1.044398468196126	-4.997037157586417	0	0	44.82057678239571	-9.998513336830857	0	59.83962435756613	1.044398468196126	-4.997037157586417	0	0	2.34116174445604	-0.2479782267974493	-3.347433996906251	0	-13.80319774709224	0	75.1178745880231	45.02547915634403	0	0	29.65414345388977	-37.45370945073442	1.557094562447695	0.7165455996423219	45.02547915634403	0	0
